<svg xmlns="http://www.w3.org/2000/svg" width="43.547" height="43.492"><path d="M17.843 16.512a6.025 6.025 0 0 1 4.96-1.21 4.2 4.2 0 0 0 3.327-.423c.847-.484 1.693-.847 2.48-1.331A9.154 9.154 0 0 0 32.116 9.5a6.117 6.117 0 0 0-.665-6.472A7.542 7.542 0 0 0 27.036 0h-2.052c-.3.121-.6.181-.907.3a11.223 11.223 0 0 0-8.1 11.189 10.647 10.647 0 0 0 1.866 5.023Zm21.712 1.995c-3.69-3.564-8.71-3.264-12.52-.725.121.181.181.3.3.484a5.621 5.621 0 0 1 .786 4.778 3.384 3.384 0 0 0 .363 2.782c.242.484.484 1.028.786 1.573a9.563 9.563 0 0 0 3.871 4.173 6.523 6.523 0 0 0 8.286-.968 9.108 9.108 0 0 0 2.117-3.508v-2.178a13.17 13.17 0 0 0-3.989-6.411Zm-22.983 7.137a5.986 5.986 0 0 1-1.149-5.262 3.559 3.559 0 0 0-.363-2.843c-.423-.786-.786-1.633-1.27-2.419a8.989 8.989 0 0 0-4.113-3.689 6.183 6.183 0 0 0-6.653.665A8.125 8.125 0 0 0 0 16.511v2.059a12.764 12.764 0 0 0 2.419 4.778c2.6 3.085 5.746 4.9 9.919 4.052a13.651 13.651 0 0 0 4.234-1.756Zm3.931 2.42a3.559 3.559 0 0 0-2.843.363c-.423.242-.907.423-1.391.665a10.03 10.03 0 0 0-4.839 4.9c-2.3 4.96 2.6 9.677 6.169 9.5a10.018 10.018 0 0 0 5.746-2.419c5.142-4.118 5.384-9.198 2.42-14.098a6.354 6.354 0 0 1-5.262 1.089Zm-2.358-6.411a3.629 3.629 0 1 0 3.568-3.629 3.71 3.71 0 0 0-3.568 3.629Z" fill="#ccc"/></svg>